<?xml version="1.0" encoding="UTF-8" standalone="no"?>
<!-- Created with Inkscape (http://www.inkscape.org/) -->

<svg
   width="98.297981mm"
   height="98.298569mm"
   viewBox="0 0 98.297981 98.298568"
   version="1.1"
   id="svg5"
   inkscape:version="1.2.1 (9c6d41e4, 2022-07-14)"
   sodipodi:docname="lupe-icon-plus.svg"
   inkscape:export-filename="lupe-icon.png"
   inkscape:export-xdpi="96"
   inkscape:export-ydpi="96"
   xmlns:inkscape="http://www.inkscape.org/namespaces/inkscape"
   xmlns:sodipodi="http://sodipodi.sourceforge.net/DTD/sodipodi-0.dtd"
   xmlns="http://www.w3.org/2000/svg"
   xmlns:svg="http://www.w3.org/2000/svg">
  <sodipodi:namedview
     id="namedview7"
     pagecolor="#ffffff"
     bordercolor="#666666"
     borderopacity="1.0"
     inkscape:showpageshadow="2"
     inkscape:pageopacity="0.0"
     inkscape:pagecheckerboard="0"
     inkscape:deskcolor="#d1d1d1"
     inkscape:document-units="mm"
     showgrid="false"
     inkscape:zoom="1.8761364"
     inkscape:cx="-367.7771"
     inkscape:cy="-41.841307"
     inkscape:window-width="2560"
     inkscape:window-height="1395"
     inkscape:window-x="0"
     inkscape:window-y="23"
     inkscape:window-maximized="1"
     inkscape:current-layer="layer1" />
  <defs
     id="defs2" />
  <g
     inkscape:label="Ebene 1"
     inkscape:groupmode="layer"
     id="layer1"
     transform="translate(-155.71474,-186.12775)">
    <path
       id="rect500"
       style="display:inline;opacity:1;fill:#220909;fill-opacity:1;stroke:#aed919;stroke-width:0;stroke-linecap:round;stroke-linejoin:round;stroke-miterlimit:0"
       d="m 195.76573,186.12775 c -10.25001,0 -20.49974,3.91005 -28.32024,11.73055 v 5.1e-4 c -15.641,15.64099 -15.641,41.00001 0,56.64099 12.5941,12.58194 31.98167,15.34079 47.58573,6.77168 0.001,0.003 0.002,0.007 0.003,0.01 v 5.2e-4 c 3.6715,-2.07334 6.83421,-0.64958 6.83421,-0.64958 l 23.7939,23.7939 8.35039,-8.35091 -23.6523,-23.65282 c 0,0 -1.42152,-2.93457 0.39326,-6.75566 8.70933,-15.63576 5.98758,-35.15208 -6.6673,-47.80845 -7.8205,-7.8205 -18.07074,-11.73055 -28.32075,-11.73055 z m 5.1e-4,12.41061 c 7.07393,-7e-5 14.14778,2.69848 19.54506,8.09563 10.79466,10.79452 10.79466,28.29613 0,39.09064 -10.79456,10.79431 -28.29575,10.794 -39.09012,-5.2e-4 -10.79417,-10.79443 -10.79417,-28.29569 0,-39.09012 5.39719,-5.39725 12.47114,-8.09556 19.54506,-8.09563 z m -5.90506,4.9351 v 16.65945 h -16.65945 v 11.8091 h 16.65945 v 16.65944 h 11.8091 v -16.65944 h 16.65944 v -11.8091 h -16.65944 v -16.65945 z" />
  </g>
</svg>
