<?xml version="1.0" encoding="UTF-8" standalone="no"?>
<!-- Created with Inkscape (http://www.inkscape.org/) -->

<svg
   width="98.29808mm"
   height="98.298393mm"
   viewBox="0 0 98.29808 98.298393"
   version="1.1"
   id="svg5"
   inkscape:version="1.2.1 (9c6d41e4, 2022-07-14)"
   sodipodi:docname="lupe-icon-minus.svg"
   inkscape:export-filename="lupe-icon.png"
   inkscape:export-xdpi="96"
   inkscape:export-ydpi="96"
   xmlns:inkscape="http://www.inkscape.org/namespaces/inkscape"
   xmlns:sodipodi="http://sodipodi.sourceforge.net/DTD/sodipodi-0.dtd"
   xmlns="http://www.w3.org/2000/svg"
   xmlns:svg="http://www.w3.org/2000/svg">
  <sodipodi:namedview
     id="namedview7"
     pagecolor="#ffffff"
     bordercolor="#666666"
     borderopacity="1.0"
     inkscape:showpageshadow="2"
     inkscape:pageopacity="0.0"
     inkscape:pagecheckerboard="0"
     inkscape:deskcolor="#d1d1d1"
     inkscape:document-units="mm"
     showgrid="false"
     inkscape:zoom="1.8761364"
     inkscape:cx="86.880677"
     inkscape:cy="200.14536"
     inkscape:window-width="2560"
     inkscape:window-height="1395"
     inkscape:window-x="0"
     inkscape:window-y="23"
     inkscape:window-maximized="1"
     inkscape:current-layer="layer1" />
  <defs
     id="defs2" />
  <g
     inkscape:label="Ebene 1"
     inkscape:groupmode="layer"
     id="layer1"
     transform="translate(-35.355263,-122.10211)">
    <path
       id="path234"
       style="opacity:1;fill:#000000;fill-opacity:1;stroke:#aed919;stroke-width:0;stroke-linecap:round;stroke-linejoin:round;stroke-miterlimit:0"
       d="m 75.40625,122.10211 c -10.250011,0 -20.499741,3.91005 -28.320235,11.73055 v 5.1e-4 c -15.641002,15.64099 -15.641003,41.00001 0,56.64099 12.594096,12.58194 31.981666,15.34079 47.585726,6.77168 0.0011,0.003 0.002,0.007 0.0031,0.01 v 5.2e-4 c 3.671506,-2.07334 6.834209,-0.64958 6.834209,-0.64958 l 23.7939,23.7939 8.35039,-8.35091 -23.6523,-23.65282 c 0,0 -1.42152,-2.93457 0.39326,-6.75566 8.70933,-15.63576 5.98758,-35.15208 -6.6673,-47.80845 -7.820492,-7.8205 -18.070739,-11.73055 -28.32075,-11.73055 z m 5.17e-4,12.41061 c 7.073924,-7e-5 14.147776,2.69848 19.54506,8.09563 10.794653,10.79452 10.794653,28.29613 0,39.09064 -10.794566,10.79431 -28.295752,10.794 -39.09012,-5.2e-4 -10.79417,-10.79443 -10.794169,-28.29569 0,-39.09012 5.397185,-5.39725 12.471135,-8.09556 19.54506,-8.09563 z m -22.564514,21.59455 v 11.8091 h 45.127994 v -11.8091 z" />
  </g>
</svg>
