<?xml version="1.0" encoding="UTF-8" standalone="no"?>
<!-- Created with Inkscape (http://www.inkscape.org/) -->

<svg
   width="0.88160104mm"
   height="6.1727509mm"
   viewBox="0 0 0.88160104 6.1727509"
   version="1.1"
   id="svg5"
   xml:space="preserve"
   inkscape:version="1.2.1 (9c6d41e4, 2022-07-14)"
   sodipodi:docname="three_dots.svg"
   xmlns:inkscape="http://www.inkscape.org/namespaces/inkscape"
   xmlns:sodipodi="http://sodipodi.sourceforge.net/DTD/sodipodi-0.dtd"
   xmlns="http://www.w3.org/2000/svg"
   xmlns:svg="http://www.w3.org/2000/svg"><sodipodi:namedview
     id="namedview7"
     pagecolor="#ffffff"
     bordercolor="#666666"
     borderopacity="1.0"
     inkscape:showpageshadow="2"
     inkscape:pageopacity="0.0"
     inkscape:pagecheckerboard="0"
     inkscape:deskcolor="#d1d1d1"
     inkscape:document-units="mm"
     showgrid="false"
     inkscape:zoom="7.5045454"
     inkscape:cx="-28.249546"
     inkscape:cy="0.46638401"
     inkscape:window-width="2560"
     inkscape:window-height="1395"
     inkscape:window-x="0"
     inkscape:window-y="23"
     inkscape:window-maximized="1"
     inkscape:current-layer="svg5" /><defs
     id="defs2" /><path
     id="path300"
     style="fill:#aed919;fill-opacity:1;stroke:#121100;stroke-width:0;stroke-linecap:round;stroke-linejoin:round;stroke-miterlimit:0"
     d="M 0.44080051,5.1048118e-7 A 0.44070512,0.44070512 0 0 0 5.1043955e-7,0.44028351 0.44070512,0.44070512 0 0 0 0.44080051,0.88108351 a 0.44070512,0.44070512 0 0 0 0.4408,-0.4408 0.44070512,0.44070512 0 0 0 -0.4408,-0.44028299951882 z m 0,2.64583298951882 A 0.44070512,0.44070512 0 0 0 5.1043955e-7,3.0861165 0.44070512,0.44070512 0 0 0 0.44080051,3.5269165 a 0.44070512,0.44070512 0 0 0 0.4408,-0.4408 0.44070512,0.44070512 0 0 0 -0.4408,-0.440283 z m 0,2.645833 A 0.44070512,0.44070512 0 0 0 5.1043955e-7,5.7319505 0.44070512,0.44070512 0 0 0 0.44080051,6.1727505 a 0.44070512,0.44070512 0 0 0 0.4408,-0.4408 0.44070512,0.44070512 0 0 0 -0.4408,-0.440284 z" /></svg>
